<svg width="217" height="69" viewBox="0 0 217 69" fill="none" xmlns="http://www.w3.org/2000/svg">
<path d="M21.6621 54.1719H16.8281V28.1738H17.9883L19.9043 30.4414C20.3379 30.0312 20.8125 29.6445 21.3281 29.2812C21.8438 28.918 22.377 28.6074 22.9277 28.3496C23.4902 28.0801 24.0703 27.8691 24.668 27.7168C25.2656 27.5645 25.8691 27.4883 26.4785 27.4883C27.8027 27.4883 29.0449 27.7285 30.2051 28.209C31.377 28.6777 32.3965 29.3457 33.2637 30.2129C34.1426 31.0801 34.834 32.1289 35.3379 33.3594C35.8418 34.5781 36.0938 35.9316 36.0938 37.4199C36.0938 38.9668 35.8418 40.3613 35.3379 41.6035C34.834 42.834 34.1426 43.8828 33.2637 44.75C32.3965 45.6055 31.377 46.2617 30.2051 46.7188C29.0449 47.1758 27.8027 47.4043 26.4785 47.4043C26.0566 47.4043 25.6348 47.3574 25.2129 47.2637C24.8027 47.1699 24.3926 47.0469 23.9824 46.8945C23.584 46.7305 23.1855 46.5488 22.7871 46.3496C22.4004 46.1504 22.0254 45.9453 21.6621 45.7344V54.1719ZM31.2773 37.4199C31.2773 36.623 31.1484 35.9082 30.8906 35.2754C30.6445 34.6426 30.3047 34.1094 29.8711 33.6758C29.4375 33.2305 28.9277 32.8906 28.3418 32.6562C27.7559 32.4219 27.1348 32.3047 26.4785 32.3047C25.8223 32.3047 25.2012 32.4219 24.6152 32.6562C24.041 32.8906 23.5371 33.2305 23.1035 33.6758C22.6699 34.1094 22.3242 34.6426 22.0664 35.2754C21.8203 35.9082 21.6973 36.623 21.6973 37.4199C21.6973 38.1816 21.8203 38.8789 22.0664 39.5117C22.3242 40.1445 22.6699 40.6836 23.1035 41.1289C23.5371 41.5742 24.041 41.9199 24.6152 42.166C25.2012 42.4121 25.8223 42.5352 26.4785 42.5352C27.1348 42.5352 27.7559 42.4121 28.3418 42.166C28.9277 41.9199 29.4375 41.5742 29.8711 41.1289C30.3047 40.6836 30.6445 40.1445 30.8906 39.5117C31.1484 38.8789 31.2773 38.1816 31.2773 37.4199ZM56.959 37.4199C56.959 38.8262 56.707 40.1387 56.2031 41.3574C55.6992 42.5645 55.0137 43.6133 54.1465 44.5039C53.2793 45.3828 52.2598 46.0801 51.0879 46.5957C49.9277 47.0996 48.6797 47.3516 47.3438 47.3516C46.0195 47.3516 44.7715 47.0996 43.5996 46.5957C42.4395 46.0801 41.4199 45.3828 40.541 44.5039C39.6738 43.6133 38.9883 42.5645 38.4844 41.3574C37.9805 40.1387 37.7285 38.8262 37.7285 37.4199C37.7285 35.9902 37.9805 34.666 38.4844 33.4473C38.9883 32.2285 39.6738 31.1797 40.541 30.3008C41.4199 29.4102 42.4395 28.7129 43.5996 28.209C44.7715 27.7051 46.0195 27.4531 47.3438 27.4531C48.6797 27.4531 49.9277 27.6934 51.0879 28.1738C52.2598 28.6426 53.2793 29.3164 54.1465 30.1953C55.0137 31.0625 55.6992 32.1113 56.2031 33.3418C56.707 34.5605 56.959 35.9199 56.959 37.4199ZM52.125 37.4199C52.125 36.6465 51.9961 35.9492 51.7383 35.3281C51.4922 34.6953 51.1523 34.1562 50.7188 33.7109C50.2852 33.2539 49.7754 32.9082 49.1895 32.6738C48.6152 32.4277 48 32.3047 47.3438 32.3047C46.6875 32.3047 46.0664 32.4277 45.4805 32.6738C44.9062 32.9082 44.4023 33.2539 43.9688 33.7109C43.5469 34.1562 43.2129 34.6953 42.9668 35.3281C42.7207 35.9492 42.5977 36.6465 42.5977 37.4199C42.5977 38.1465 42.7207 38.8203 42.9668 39.4414C43.2129 40.0625 43.5469 40.6016 43.9688 41.0586C44.4023 41.5156 44.9062 41.8789 45.4805 42.1484C46.0664 42.4062 46.6875 42.5352 47.3438 42.5352C48 42.5352 48.6152 42.4121 49.1895 42.166C49.7754 41.9199 50.2852 41.5742 50.7188 41.1289C51.1523 40.6836 51.4922 40.1445 51.7383 39.5117C51.9961 38.8789 52.125 38.1816 52.125 37.4199ZM94.2539 47H87.5508V23C87.5508 22.5312 87.457 22.0938 87.2695 21.6875C87.0977 21.2812 86.8555 20.9297 86.543 20.6328C86.2461 20.3203 85.8945 20.0781 85.4883 19.9062C85.082 19.7344 84.6445 19.6484 84.1758 19.6484C83.707 19.6484 83.2695 19.7344 82.8633 19.9062C82.457 20.0781 82.0977 20.3203 81.7852 20.6328C81.4883 20.9297 81.2539 21.2812 81.082 21.6875C80.9102 22.0938 80.8242 22.5312 80.8242 23V47H74.0977V23C74.0977 22.5312 74.0117 22.0938 73.8398 21.6875C73.668 21.2812 73.4258 20.9297 73.1133 20.6328C72.8164 20.3203 72.4648 20.0781 72.0586 19.9062C71.6523 19.7344 71.2148 19.6484 70.7461 19.6484C70.2773 19.6484 69.8398 19.7344 69.4336 19.9062C69.0273 20.0781 68.668 20.3203 68.3555 20.6328C68.0586 20.9297 67.8242 21.2812 67.6523 21.6875C67.4805 22.0938 67.3945 22.5312 67.3945 23V47H60.668V23C60.668 21.6094 60.9258 20.3047 61.4414 19.0859C61.9727 17.8516 62.6914 16.7812 63.5977 15.875C64.5195 14.9531 65.5898 14.2344 66.8086 13.7188C68.043 13.1875 69.3555 12.9219 70.7461 12.9219C71.9961 12.9219 73.1992 13.1484 74.3555 13.6016C75.5117 14.0391 76.5508 14.6797 77.4727 15.5234C78.3945 14.6797 79.4258 14.0391 80.5664 13.6016C81.7227 13.1484 82.9258 12.9219 84.1758 12.9219C85.5664 12.9219 86.8711 13.1875 88.0898 13.7188C89.3242 14.2344 90.3945 14.9531 91.3008 15.875C92.2227 16.7812 92.9414 17.8516 93.457 19.0859C93.9883 20.3047 94.2539 21.6094 94.2539 23V47ZM105.363 56.5625V50.1172L108.926 50.1641C109.551 50.1641 110.152 50.0625 110.73 49.8594C111.309 49.6562 111.84 49.375 112.324 49.0156C112.824 48.6562 113.262 48.2266 113.637 47.7266C114.012 47.2422 114.316 46.7109 114.551 46.1328C113.848 46.4297 113.129 46.7266 112.395 47.0234C111.676 47.3203 110.949 47.4688 110.215 47.4688C108.668 47.4688 107.215 47.1953 105.855 46.6484C104.496 46.1016 103.301 45.3281 102.27 44.3281C101.254 43.3125 100.449 42.0859 99.8555 40.6484C99.2773 39.1953 98.9883 37.5703 98.9883 35.7734V21.8984H105.363V35.7734C105.363 36.6641 105.488 37.4453 105.738 38.1172C106.004 38.7734 106.355 39.3281 106.793 39.7812C107.23 40.2188 107.738 40.5469 108.316 40.7656C108.91 40.9844 109.543 41.0938 110.215 41.0938C110.871 41.0938 111.488 40.9453 112.066 40.6484C112.66 40.3359 113.176 39.9297 113.613 39.4297C114.051 38.9297 114.395 38.3672 114.645 37.7422C114.895 37.1016 115.02 36.4453 115.02 35.7734V21.8984H121.465V43.8359C121.449 45.6016 121.105 47.2578 120.434 48.8047C119.762 50.3516 118.84 51.7031 117.668 52.8594C116.512 54.0156 115.16 54.9297 113.613 55.6016C112.066 56.2734 110.41 56.6094 108.645 56.6094L105.363 56.5625ZM143.947 47H142.787L140.924 44.416C140.467 44.8262 139.98 45.2129 139.465 45.5762C138.961 45.9277 138.428 46.2383 137.865 46.5078C137.303 46.7656 136.723 46.9707 136.125 47.123C135.539 47.2754 134.941 47.3516 134.332 47.3516C133.008 47.3516 131.76 47.1055 130.588 46.6133C129.428 46.1094 128.408 45.418 127.529 44.5391C126.662 43.6484 125.977 42.5996 125.473 41.3926C124.969 40.1738 124.717 38.8496 124.717 37.4199C124.717 36.002 124.969 34.6836 125.473 33.4648C125.977 32.2461 126.662 31.1914 127.529 30.3008C128.408 29.4102 129.428 28.7129 130.588 28.209C131.76 27.7051 133.008 27.4531 134.332 27.4531C134.754 27.4531 135.188 27.4883 135.633 27.5586C136.09 27.6289 136.529 27.7461 136.951 27.9102C137.385 28.0625 137.789 28.2676 138.164 28.5254C138.539 28.7832 138.855 29.0996 139.113 29.4746V20.6855H143.947V47ZM139.113 37.4199C139.113 36.7637 138.984 36.1309 138.727 35.5215C138.48 34.9004 138.141 34.3555 137.707 33.8867C137.273 33.4062 136.764 33.0254 136.178 32.7441C135.604 32.4512 134.988 32.3047 134.332 32.3047C133.676 32.3047 133.055 32.4219 132.469 32.6562C131.895 32.8906 131.391 33.2305 130.957 33.6758C130.535 34.1094 130.201 34.6426 129.955 35.2754C129.709 35.9082 129.586 36.623 129.586 37.4199C129.586 38.1113 129.709 38.7676 129.955 39.3887C130.201 40.0098 130.535 40.5547 130.957 41.0234C131.391 41.4922 131.895 41.8613 132.469 42.1309C133.055 42.4004 133.676 42.5352 134.332 42.5352C134.988 42.5352 135.604 42.3945 136.178 42.1133C136.764 41.8203 137.273 41.4395 137.707 40.9707C138.141 40.4902 138.48 39.9453 138.727 39.3359C138.984 38.7148 139.113 38.0762 139.113 37.4199ZM165.814 37.4199C165.814 38.8262 165.562 40.1387 165.059 41.3574C164.555 42.5645 163.869 43.6133 163.002 44.5039C162.135 45.3828 161.115 46.0801 159.943 46.5957C158.783 47.0996 157.535 47.3516 156.199 47.3516C154.875 47.3516 153.627 47.0996 152.455 46.5957C151.295 46.0801 150.275 45.3828 149.396 44.5039C148.529 43.6133 147.844 42.5645 147.34 41.3574C146.836 40.1387 146.584 38.8262 146.584 37.4199C146.584 35.9902 146.836 34.666 147.34 33.4473C147.844 32.2285 148.529 31.1797 149.396 30.3008C150.275 29.4102 151.295 28.7129 152.455 28.209C153.627 27.7051 154.875 27.4531 156.199 27.4531C157.535 27.4531 158.783 27.6934 159.943 28.1738C161.115 28.6426 162.135 29.3164 163.002 30.1953C163.869 31.0625 164.555 32.1113 165.059 33.3418C165.562 34.5605 165.814 35.9199 165.814 37.4199ZM160.98 37.4199C160.98 36.6465 160.852 35.9492 160.594 35.3281C160.348 34.6953 160.008 34.1562 159.574 33.7109C159.141 33.2539 158.631 32.9082 158.045 32.6738C157.471 32.4277 156.855 32.3047 156.199 32.3047C155.543 32.3047 154.922 32.4277 154.336 32.6738C153.762 32.9082 153.258 33.2539 152.824 33.7109C152.402 34.1562 152.068 34.6953 151.822 35.3281C151.576 35.9492 151.453 36.6465 151.453 37.4199C151.453 38.1465 151.576 38.8203 151.822 39.4414C152.068 40.0625 152.402 40.6016 152.824 41.0586C153.258 41.5156 153.762 41.8789 154.336 42.1484C154.922 42.4062 155.543 42.5352 156.199 42.5352C156.855 42.5352 157.471 42.4121 158.045 42.166C158.631 41.9199 159.141 41.5742 159.574 41.1289C160.008 40.6836 160.348 40.1445 160.594 39.5117C160.852 38.8789 160.98 38.1816 160.98 37.4199ZM173.268 47H168.469V28.1738H169.629L171.211 30.4062C171.984 29.7031 172.863 29.1641 173.848 28.7891C174.832 28.4023 175.852 28.209 176.906 28.209H181.143V32.9902H176.906C176.402 32.9902 175.928 33.084 175.482 33.2715C175.037 33.459 174.65 33.7168 174.322 34.0449C173.994 34.373 173.736 34.7598 173.549 35.2051C173.361 35.6504 173.268 36.125 173.268 36.6289V47ZM201.217 37.4199C201.217 38.8262 200.965 40.1387 200.461 41.3574C199.957 42.5645 199.271 43.6133 198.404 44.5039C197.537 45.3828 196.518 46.0801 195.346 46.5957C194.186 47.0996 192.938 47.3516 191.602 47.3516C190.277 47.3516 189.029 47.0996 187.857 46.5957C186.697 46.0801 185.678 45.3828 184.799 44.5039C183.932 43.6133 183.246 42.5645 182.742 41.3574C182.238 40.1387 181.986 38.8262 181.986 37.4199C181.986 35.9902 182.238 34.666 182.742 33.4473C183.246 32.2285 183.932 31.1797 184.799 30.3008C185.678 29.4102 186.697 28.7129 187.857 28.209C189.029 27.7051 190.277 27.4531 191.602 27.4531C192.938 27.4531 194.186 27.6934 195.346 28.1738C196.518 28.6426 197.537 29.3164 198.404 30.1953C199.271 31.0625 199.957 32.1113 200.461 33.3418C200.965 34.5605 201.217 35.9199 201.217 37.4199ZM196.383 37.4199C196.383 36.6465 196.254 35.9492 195.996 35.3281C195.75 34.6953 195.41 34.1562 194.977 33.7109C194.543 33.2539 194.033 32.9082 193.447 32.6738C192.873 32.4277 192.258 32.3047 191.602 32.3047C190.945 32.3047 190.324 32.4277 189.738 32.6738C189.164 32.9082 188.66 33.2539 188.227 33.7109C187.805 34.1562 187.471 34.6953 187.225 35.3281C186.979 35.9492 186.855 36.6465 186.855 37.4199C186.855 38.1465 186.979 38.8203 187.225 39.4414C187.471 40.0625 187.805 40.6016 188.227 41.0586C188.66 41.5156 189.164 41.8789 189.738 42.1484C190.324 42.4062 190.945 42.5352 191.602 42.5352C192.258 42.5352 192.873 42.4121 193.447 42.166C194.033 41.9199 194.543 41.5742 194.977 41.1289C195.41 40.6836 195.75 40.1445 195.996 39.5117C196.254 38.8789 196.383 38.1816 196.383 37.4199Z" fill="white"/>
<rect y="66" width="217" height="3" rx="1.5" fill="white"/>
</svg>
